<svg width="620" height="360" viewBox="0 0 620 360" fill="none" xmlns="http://www.w3.org/2000/svg">
<rect width="620" height="360" fill="#EBF5FF"/>
<g clip-path="url(#clip0_213_707)">
<rect width="620" height="360" fill="#017CFF"/>
<rect width="620" height="360" fill="white" fill-opacity="0.92"/>
<path d="M692.454 432.87C700.783 427.459 707.704 420.144 712.645 411.528C742.825 359.034 736.009 281.556 677.887 248.344C651.022 232.995 612.351 223.28 583.322 239.046C559.773 251.834 545.338 275.906 533.399 297.813C525.886 311.588 519.703 326.414 510.458 339.303C498.456 356.019 485.251 378.343 498.583 397.763C516.752 424.216 551.066 436.307 582.187 444.227C615.947 452.855 653.905 454.08 685.089 437.252C687.612 435.904 690.068 434.443 692.454 432.87Z" fill="#FF6767"/>
<path d="M692.454 432.87C700.783 427.459 707.704 420.144 712.645 411.528C742.825 359.034 736.009 281.556 677.887 248.344C651.022 232.995 612.351 223.28 583.322 239.046C559.773 251.834 545.338 275.906 533.399 297.813C525.886 311.588 519.703 326.414 510.458 339.303C498.456 356.019 485.251 378.343 498.583 397.763C516.752 424.216 551.066 436.307 582.187 444.227C615.947 452.855 653.905 454.08 685.089 437.252C687.612 435.904 690.068 434.443 692.454 432.87Z" fill="white" fill-opacity="0.8"/>
<path d="M107.145 -125.765C107.145 -125.765 68.7435 -139.424 31.0443 -117.681C-6.65488 -95.9382 -25.6787 -52.7794 -42.0098 -18.2113C-58.3408 16.3569 -48.9424 51.5269 -20.1664 67.5623C8.6096 83.5977 28.1773 59.9591 68.5376 58.8081C108.898 57.657 119.754 63.4281 153.266 40.6237C186.778 17.8194 192.824 -36.0418 166.397 -75.8953C139.971 -115.749 107.145 -125.765 107.145 -125.765Z" fill="#017CFF"/>
<path d="M107.145 -125.765C107.145 -125.765 68.7435 -139.424 31.0443 -117.681C-6.65488 -95.9382 -25.6787 -52.7794 -42.0098 -18.2113C-58.3408 16.3569 -48.9424 51.5269 -20.1664 67.5623C8.6096 83.5977 28.1773 59.9591 68.5376 58.8081C108.898 57.657 119.754 63.4281 153.266 40.6237C186.778 17.8194 192.824 -36.0418 166.397 -75.8953C139.971 -115.749 107.145 -125.765 107.145 -125.765Z" fill="white" fill-opacity="0.8"/>
<path d="M490 346C499.113 335.298 509.874 325.985 522.672 319.969C525.401 318.575 528.327 317.604 531.349 317.09C533.409 316.807 535.947 317.125 536.859 318.997C537.241 319.948 537.305 320.997 537.042 321.988C536.535 324.525 535.275 326.838 533.986 329.081C531.155 334.02 527.929 339.089 522.854 341.968C521.636 342.656 519.781 343.327 518.61 342.191C517.609 341.214 517.915 339.707 518.486 338.6C519.481 336.681 521.218 335.262 522.996 334.044C527.411 331.024 532.362 328.905 537.348 327.027C542.516 325.078 547.667 323.153 553.089 322.029" stroke="#017CFF" stroke-width="2" stroke-miterlimit="10" stroke-linecap="round"/>
<path d="M140.327 21.8271C138.948 25.7921 138.876 30.0912 140.12 34.0973C141.694 38.8116 145.621 42.7775 150.62 43.7221C152.387 44.0712 154.213 43.9914 155.944 43.4894C157.674 42.9875 159.259 42.0781 160.564 40.8379C161.832 39.6161 162.663 38.0138 162.931 36.2768C163.055 35.4083 162.978 34.5231 162.706 33.6891C162.434 32.8551 161.975 32.0944 161.362 31.4655C159.162 29.3489 155.173 29.8828 153.253 32.2452C151.794 34.0401 151.443 36.5216 151.571 38.7942C151.771 41.7702 152.676 44.6559 154.212 47.2143C155.748 49.7727 157.87 51.9311 160.406 53.5123C164.721 56.1434 170.016 56.9056 175.046 56.2845C180.075 55.6634 184.844 53.6636 189.23 51.132" stroke="#FF6767" stroke-width="2" stroke-miterlimit="10" stroke-linecap="round"/>
<path d="M257.807 206.632V158.211H266.846V178.418C269.17 175.664 272.333 174.286 276.336 174.286C280.511 174.286 283.847 175.664 286.343 178.418C288.883 181.173 290.152 185.047 290.152 190.039V206.632H281.114V190.749C281.114 187.909 280.468 185.735 279.177 184.229C277.929 182.722 276.25 181.969 274.141 181.969C271.903 181.969 270.117 182.765 268.783 184.358C267.491 185.95 266.846 188.145 266.846 190.943V206.632H257.807Z" fill="#001933"/>
<path d="M311.314 173.641C316.048 173.641 319.901 175.147 322.87 178.16C325.883 181.13 327.411 185.24 327.454 190.491C327.454 191.61 327.433 192.493 327.39 193.138H302.856C303.287 195.376 304.277 197.098 305.826 198.303C307.376 199.508 309.205 200.111 311.314 200.111C314.843 200.111 317.555 198.884 319.449 196.431L324.936 201.015C323.473 203.038 321.515 204.63 319.061 205.792C316.608 206.911 314.047 207.471 311.378 207.471C306.558 207.471 302.534 205.857 299.305 202.629C296.077 199.358 294.463 195.376 294.463 190.685C294.463 185.821 296.056 181.775 299.241 178.547C302.469 175.276 306.493 173.641 311.314 173.641ZM311.378 180.678C309.312 180.678 307.526 181.28 306.02 182.486C304.556 183.648 303.545 185.262 302.985 187.328H319.32C318.157 182.895 315.51 180.678 311.378 180.678Z" fill="#001933"/>
<path d="M345.315 207.213C341.054 207.213 337.503 205.62 334.662 202.435C331.821 199.25 330.401 195.312 330.401 190.62C330.401 185.929 331.821 182.012 334.662 178.87C337.503 175.685 341.054 174.093 345.315 174.093C349.748 174.093 353.256 175.621 355.838 178.676V174.674H364.877V206.632H355.838V202.629C353.213 205.685 349.705 207.213 345.315 207.213ZM341.699 196.818C343.292 198.454 345.25 199.272 347.574 199.272C349.898 199.272 351.857 198.454 353.449 196.818C355.042 195.14 355.838 193.074 355.838 190.62C355.838 188.167 355.042 186.123 353.449 184.487C351.857 182.808 349.898 181.969 347.574 181.969C345.25 181.969 343.292 182.787 341.699 184.422C340.15 186.058 339.375 188.124 339.375 190.62C339.375 193.117 340.15 195.183 341.699 196.818Z" fill="#001933"/>
<path d="M382.526 206.761C379.083 206.761 376.35 205.771 374.327 203.791C372.347 201.811 371.357 199.056 371.357 195.527V158.211H380.396V193.848C380.396 195.398 380.826 196.56 381.687 197.335C382.548 198.066 383.624 198.432 384.915 198.432C385.604 198.432 386.206 198.346 386.723 198.174L387.626 206.051C385.733 206.524 384.033 206.761 382.526 206.761Z" fill="#001933"/>
<path d="M408.745 206.632V174.674H417.783V178.483C420.366 175.556 423.615 174.093 427.532 174.093C431.922 174.093 435.452 175.943 438.12 179.645C441.176 175.943 445.071 174.093 449.806 174.093C454.024 174.093 457.359 175.491 459.813 178.289C462.309 181.087 463.557 185.004 463.557 190.039V206.632H454.519V190.814C454.519 187.887 453.895 185.649 452.646 184.1C451.441 182.55 449.806 181.775 447.74 181.775C445.545 181.775 443.823 182.593 442.575 184.229C441.327 185.821 440.703 188.016 440.703 190.814V206.632H431.664V190.814C431.664 187.93 431.04 185.714 429.792 184.164C428.543 182.572 426.908 181.775 424.885 181.775C422.733 181.775 421.011 182.615 419.72 184.293C418.429 185.929 417.783 188.189 417.783 191.072V206.632H408.745Z" fill="#001933"/>
<path d="M484.76 173.641C489.494 173.641 493.346 175.147 496.316 178.16C499.329 181.13 500.857 185.24 500.9 190.491C500.9 191.61 500.878 192.493 500.835 193.138H476.302C476.732 195.376 477.722 197.098 479.272 198.303C480.821 199.508 482.651 200.111 484.76 200.111C488.289 200.111 491.001 198.884 492.894 196.431L498.382 201.015C496.919 203.038 494.96 204.63 492.507 205.792C490.054 206.911 487.493 207.471 484.824 207.471C480.004 207.471 475.979 205.857 472.751 202.629C469.523 199.358 467.909 195.376 467.909 190.685C467.909 185.821 469.502 181.775 472.687 178.547C475.915 175.276 479.939 173.641 484.76 173.641ZM484.824 180.678C482.758 180.678 480.972 181.28 479.466 182.486C478.002 183.648 476.991 185.262 476.431 187.328H492.765C491.603 182.895 488.956 180.678 484.824 180.678Z" fill="#001933"/>
<path fill-rule="evenodd" clip-rule="evenodd" d="M164.61 157.152C167.284 157.152 169.452 159.316 169.452 161.985C169.452 167.967 170.533 175.826 176.044 184.914C181.596 194.07 191.834 204.785 210.68 216.071C212.973 217.444 213.717 220.413 212.341 222.702C210.965 224.991 207.99 225.733 205.697 224.36C185.884 212.494 174.333 200.759 167.76 189.919C161.146 179.013 159.768 169.333 159.768 161.985C159.768 159.316 161.935 157.152 164.61 157.152Z" fill="url(#paint0_linear_213_707)"/>
<path fill-rule="evenodd" clip-rule="evenodd" d="M187.805 143.666C177.669 143.666 169.452 151.868 169.452 161.985C169.452 164.654 167.284 166.818 164.61 166.818C161.935 166.818 159.768 164.654 159.768 161.985C159.768 146.529 172.32 134 187.805 134C203.289 134 215.842 146.529 215.842 161.985C215.842 178.643 204.902 196.001 191.284 209.595C191.282 209.597 191.28 209.599 191.278 209.601L180.12 220.819C174.62 226.347 165.798 227.879 158.88 223.314C151.032 218.135 142.612 211.326 136.097 203.535C129.641 195.814 124.623 186.601 124.623 176.718C124.623 174.049 126.791 171.885 129.465 171.885C132.14 171.885 134.307 174.049 134.307 176.718C134.307 183.356 137.741 190.416 143.532 197.342C149.265 204.198 156.887 210.411 164.221 215.251C166.889 217.011 170.65 216.619 173.248 214.008L184.418 202.779L184.43 202.766C197.421 189.801 206.158 174.79 206.158 161.985C206.158 151.868 197.941 143.666 187.805 143.666Z" fill="url(#paint1_linear_213_707)"/>
<path fill-rule="evenodd" clip-rule="evenodd" d="M142.117 168.591C137.921 168.591 134.307 172.111 134.307 176.718C134.307 179.387 132.14 181.551 129.465 181.551C126.791 181.551 124.623 179.387 124.623 176.718C124.623 167.01 132.338 158.925 142.117 158.925C151.896 158.925 159.611 167.01 159.611 176.718C159.611 182.729 158.306 188.908 153.389 196.507C148.61 203.893 140.45 212.574 126.961 223.912C124.916 225.632 121.861 225.37 120.138 223.328C118.416 221.287 118.678 218.238 120.723 216.519C133.944 205.406 141.248 197.454 145.254 191.262C149.123 185.283 149.927 180.938 149.927 176.718C149.927 172.111 146.313 168.591 142.117 168.591Z" fill="url(#paint2_linear_213_707)"/>
<path fill-rule="evenodd" clip-rule="evenodd" d="M142.117 168.591C137.921 168.591 134.307 172.111 134.307 176.718C134.307 179.387 132.14 181.551 129.465 181.551C126.791 181.551 124.623 179.387 124.623 176.718C124.623 167.01 132.338 158.925 142.117 158.925C151.896 158.925 159.611 167.01 159.611 176.718C159.611 182.729 158.306 188.908 153.389 196.507C148.61 203.893 140.45 212.574 126.961 223.912C124.916 225.632 121.861 225.37 120.138 223.328C118.416 221.287 118.678 218.238 120.723 216.519C133.944 205.406 141.248 197.454 145.254 191.262C149.123 185.283 149.927 180.938 149.927 176.718C149.927 172.111 146.313 168.591 142.117 168.591Z" fill="url(#paint3_linear_213_707)"/>
</g>
<defs>
<linearGradient id="paint0_linear_213_707" x1="167.421" y1="165.493" x2="186.336" y2="220.237" gradientUnits="userSpaceOnUse">
<stop stop-color="#017CFF"/>
<stop offset="0.512933" stop-color="#FF6060"/>
</linearGradient>
<linearGradient id="paint1_linear_213_707" x1="163.907" y1="177.419" x2="132.281" y2="183.756" gradientUnits="userSpaceOnUse">
<stop stop-color="#017CFF"/>
<stop offset="1" stop-color="#FF6060"/>
</linearGradient>
<linearGradient id="paint2_linear_213_707" x1="142.117" y1="172.508" x2="156.138" y2="194.281" gradientUnits="userSpaceOnUse">
<stop stop-color="#FF6060"/>
<stop offset="1" stop-color="#017CFF"/>
</linearGradient>
<linearGradient id="paint3_linear_213_707" x1="150.552" y1="164.09" x2="134.422" y2="183.763" gradientUnits="userSpaceOnUse">
<stop stop-color="#018FFF"/>
<stop offset="1" stop-color="#017CFF" stop-opacity="0"/>
</linearGradient>
<clipPath id="clip0_213_707">
<rect width="620" height="360" fill="white"/>
</clipPath>
</defs>
</svg>
